<?xml version="1.0" encoding="UTF-8"?>
<svg id="Layer_2" data-name="Layer 2" xmlns="http://www.w3.org/2000/svg" xmlns:xlink="http://www.w3.org/1999/xlink" viewBox="0 0 1837.6 193.14">
  <defs>
    <style>
      .cls-1 {
        fill: #db9b35;
      }

      .cls-2 {
        fill: url(#linear-gradient-2);
      }

      .cls-3 {
        fill: url(#linear-gradient);
      }

      .cls-4 {
        fill: #56504f;
      }

      .cls-5 {
        fill: #e91e24;
      }

      .cls-6, .cls-7, .cls-8 {
        fill: #fff;
      }

      .cls-7 {
        stroke: #fff;
        stroke-miterlimit: 10;
        stroke-width: 9px;
      }

      .cls-9 {
        letter-spacing: -.07em;
      }

      .cls-10 {
        letter-spacing: -.02em;
      }

      .cls-11 {
        letter-spacing: -.05em;
      }

      .cls-12 {
        letter-spacing: 0em;
      }

      .cls-8 {
        font-family: NexaRustSans-Black2, 'Nexa Rust Sans';
        font-size: 143.19px;
        font-weight: 800;
      }
    </style>
    <linearGradient id="linear-gradient" x1="206.42" y1="-75.36" x2="205.09" y2="-1.9" gradientTransform="translate(-22.38 24.43) scale(.5 -.5)" gradientUnits="userSpaceOnUse">
      <stop offset="0" stop-color="#e8a537"/>
      <stop offset="1" stop-color="#fed37c"/>
    </linearGradient>
    <linearGradient id="linear-gradient-2" x1="258.55" y1="-94.41" x2="255.35" y2="-46.1" gradientTransform="translate(-22.38 24.43) scale(.5 -.5)" gradientUnits="userSpaceOnUse">
      <stop offset="0" stop-color="#d4902e"/>
      <stop offset="1" stop-color="#efb54e"/>
    </linearGradient>
  </defs>
  <g id="Layer_2-2" data-name="Layer 2">
    <path class="cls-7" d="M83.01,4.65c46.07-2.78,85.68,32.33,88.43,78.41,2.75,46.08-32.39,85.66-78.47,88.38-46.04,2.72-85.57-32.38-88.32-78.41C1.9,46.99,36.97,7.44,83.01,4.65Z"/>
    <path class="cls-4" d="M45.02,149.94c-6.29-4.8-10.94-9.08-15.84-15.39-12.51-16.1-18.03-36.54-15.34-56.74,2.48-19.03,12.7-37.46,27.98-49.16,16.22-12.46,36.76-17.91,57.03-15.13,19.51,2.69,37.13,13.08,48.94,28.84,12.2,16.44,17.3,37.07,14.18,57.3-3.01,20.26-14.08,37.74-30.38,49.91-.6-4.05-1.19-19.47-2.86-22.19-3.88-6.35-14.06-14.09-20.02-18.97-2.54,3.63-5.49,7.33-8.26,10.81-10.88,13.67-21.22,27.91-32.16,41.52-1.92-.63-4.4-1.37-6.24-2.1,6.73-8.35,13.08-17.07,19.79-25.44,1.44-1.8,2.9-3.67,4.25-5.54-3.12-3.16-15.81-16.68-18.67-18.36-1.54,1.19-3.08,2.39-4.59,3.61-3.38,2.73-13.73,11.16-14.97,14.76-1.64,4.73-2.22,16.69-2.82,22.27Z"/>
    <path class="cls-5" d="M72.72,105.04l17.36,17.35c4.84-5.64,9.43-11.6,14.27-17.3,1.36.93,3.02,2.29,4.35,3.33-2.54,3.63-5.49,7.33-8.26,10.81-10.88,13.67-21.22,27.91-32.16,41.52-1.92-.63-4.4-1.37-6.24-2.1,6.73-8.35,13.08-17.07,19.79-25.44,1.44-1.8,2.9-3.67,4.25-5.54-3.12-3.16-15.81-16.68-18.67-18.36,1.65-1.45,3.57-2.9,5.31-4.28Z"/>
    <path class="cls-6" d="M54.94,61.71c.09-.92.08-2.37.08-3.31-.05-10.65,5.12-20.64,13.79-27.04,7.46-5.43,16.79-7.66,25.9-6.18,11.38,1.74,18.04,7.71,24.5,16.61,5.91-2.06,11.9-3.95,17.78-6.02.49,1.5.96,3.01,1.4,4.53-5.51,2.06-12.26,3.68-17.37,5.67,3.21,7.77,3.29,17.37.17,25.17l25.31-2.08c.2,1.91.31,3.15.31,5.07-7.87.64-19.93,1.29-27.77,1.45-.68,1.58-1.54,2.73-2.64,4.05,5.41,4.7,11.13,9.34,16.61,14.03H44.85c5.99-4.93,11.94-9.93,17.84-14.98-10.35-.15-27.62,1.92-38.5,1.91-.17-.14-.34-.27-.52-.41l-.02-.56c1.18-1.38,9.95-1.61,12.3-1.82,7.75-.71,15.51-1.38,23.26-2.01-.09-.36-1.24-2.85-1.47-3.37-1.01-2.25-1.47-3.67-2.05-6.03-3.47,1.28-29.4,9.84-31.04,9.72-.74-.05-1.05-.18-1.54-.71l.24-.51c1.26-.83,8.41-3.19,10.19-3.81l21.67-7.59-.28-1.77Z"/>
    <path class="cls-3" d="M54.94,61.71c.09-.92.08-2.37.08-3.31-.05-10.65,5.12-20.64,13.79-27.04,7.46-5.43,16.79-7.66,25.9-6.18,11.38,1.74,18.04,7.71,24.5,16.61,5.91-2.06,11.9-3.95,17.78-6.02.49,1.5.96,3.01,1.4,4.53-5.51,2.06-12.26,3.68-17.37,5.67-10.71,3.31-22,7.08-32.65,10.19-10.39,2.77-22.19,7.04-32.67,10.22-3.47,1.28-29.4,9.84-31.04,9.72-.74-.05-1.05-.18-1.54-.71l.24-.51c1.26-.83,8.41-3.19,10.19-3.81l21.67-7.59-.28-1.77Z"/>
    <path class="cls-6" d="M119.2,41.79c5.91-2.06,11.9-3.95,17.78-6.02.49,1.5.96,3.01,1.4,4.53-5.51,2.06-12.26,3.68-17.37,5.67-10.71,3.31-22,7.08-32.65,10.19-10.39,2.77-22.19,7.04-32.67,10.22-3.47,1.28-29.4,9.84-31.04,9.72-.74-.05-1.05-.18-1.54-.71l.24-.51c1.26-.83,8.41-3.19,10.19-3.81l21.67-7.59c4.91-1.77,9.94-3.35,14.79-5.23,1.58-.19,11.47-3.83,13.52-4.47,11.6-3.63,24.08-8.64,35.67-11.98Z"/>
    <path class="cls-1" d="M54.94,61.71c2.15,2.52,3.61-.98,5.13-2.39,1.96-1.82,3.57.26,4.79.1,1.77-.23,2.92-1.32,5.16-1.18-4.85,1.88-9.88,3.46-14.79,5.23l-.28-1.77Z"/>
    <path class="cls-2" d="M88.36,56.16c10.65-3.12,21.94-6.88,32.65-10.19,3.21,7.77,3.29,17.37.17,25.17-1.69.37-11.2.91-13.61,1.09l-11.88-10.07c-1.96-1.66-4.78-4.2-6.76-5.58l-.57-.42Z"/>
    <path class="cls-1" d="M88.36,56.16l.57.42c-7.19,6.16-14.42,12.28-21.69,18.34-2.18.43-5.72.73-8.02.86-.09-.36-1.24-2.85-1.47-3.37-1.01-2.25-1.47-3.67-2.05-6.03,10.48-3.17,22.28-7.45,32.67-10.22Z"/>
    <path class="cls-1" d="M112.22,75.98l6.81-.41c-.68,1.58-1.54,2.73-2.64,4.05-1.16-.87-3.03-2.62-4.17-3.64Z"/>
    <path class="cls-6" d="M75.66,98.57c8.98.08,18.12-.05,27.11-.09v4.53s-6.68,6.88-6.68,6.88l-6.76,7.11c-4.52-4.66-9.28-9.29-13.71-14l.04-4.43Z"/>
    <text class="cls-8" transform="translate(201.62 145.17)"><tspan x="0" y="0">Che</tspan><tspan class="cls-12" x="321.33" y="0">e</tspan><tspan class="cls-10" x="419.99" y="0">t</tspan><tspan x="515.64" y="0">oChop</tspan><tspan class="cls-11" x="1093.14" y="0">s</tspan><tspan x="1186.36" y="0">tic</tspan><tspan class="cls-9" x="1439.52" y="0">k</tspan><tspan x="1535.6" y="0">s</tspan></text>
  </g>
</svg>